<svg width="28" height="28" viewBox="0 0 28 28" fill="none" xmlns="http://www.w3.org/2000/svg">
<path d="M24.791 21.5488L22.866 22.0038C22.4343 22.1088 22.096 22.4355 22.0026 22.8671L21.5943 24.5821C21.3726 25.5155 20.1826 25.8071 19.5643 25.0721L16.076 21.0588C15.796 20.7321 15.9476 20.2188 16.3676 20.1138C18.4326 19.6121 20.2876 18.4571 21.6526 16.8121C21.8743 16.5438 22.271 16.5088 22.516 16.7538L25.106 19.3438C25.9926 20.2305 25.6776 21.3388 24.791 21.5488Z" fill="white"/>
<path d="M3.15165 21.5488L5.07665 22.0038C5.50832 22.1088 5.84665 22.4355 5.93999 22.8671L6.34832 24.5821C6.56999 25.5155 7.75999 25.8071 8.37832 25.0721L11.8667 21.0588C12.1467 20.7321 11.995 20.2188 11.575 20.1138C9.50999 19.6121 7.65499 18.4571 6.28999 16.8121C6.06832 16.5438 5.67165 16.5088 5.42665 16.7538L2.83665 19.3438C1.94999 20.2305 2.26499 21.3388 3.15165 21.5488Z" fill="white"/>
<path d="M13.9987 2.33301C9.4837 2.33301 5.83203 5.98467 5.83203 10.4997C5.83203 12.1913 6.3337 13.743 7.19703 15.038C8.45703 16.9047 10.452 18.223 12.7737 18.5613C13.1704 18.6313 13.5787 18.6663 13.9987 18.6663C14.4187 18.6663 14.827 18.6313 15.2237 18.5613C17.5454 18.223 19.5404 16.9047 20.8004 15.038C21.6637 13.743 22.1654 12.1913 22.1654 10.4997C22.1654 5.98467 18.5137 2.33301 13.9987 2.33301ZM17.5687 10.243L16.6004 11.2113C16.437 11.3747 16.3437 11.6897 16.402 11.923L16.682 13.1247C16.9037 14.0697 16.402 14.443 15.562 13.9413L14.3954 13.253C14.1854 13.1247 13.8354 13.1247 13.6254 13.253L12.4587 13.9413C11.6187 14.4313 11.117 14.0697 11.3387 13.1247L11.6187 11.923C11.6654 11.7013 11.5837 11.3747 11.4204 11.2113L10.4287 10.243C9.85703 9.67134 10.0437 9.09968 10.837 8.97134L12.0854 8.76134C12.2954 8.72634 12.5404 8.53967 12.6337 8.35301L13.322 6.97634C13.6954 6.22967 14.302 6.22967 14.6754 6.97634L15.3637 8.35301C15.457 8.53967 15.702 8.72634 15.9237 8.76134L17.172 8.97134C17.9537 9.09968 18.1404 9.67134 17.5687 10.243Z" fill="white"/>
</svg>
